<svg width="20" height="20" viewBox="0 0 20 20" fill="none" xmlns="http://www.w3.org/2000/svg">
<g clip-path="url(#clip0_121_23)">
<circle cx="10" cy="10" r="10" fill="black"/>
<path d="M13.2161 15.0516C12.7457 15.4944 12.2218 15.771 11.6444 15.8814C11.0699 15.9891 10.4986 15.946 9.93042 15.7519C9.36246 15.5525 8.85576 15.2161 8.41035 14.7429L6.69269 12.9179C6.36518 12.57 6.38176 12.0224 6.72973 11.6949V11.6949C7.0777 11.3674 7.62529 11.3839 7.9528 11.7319L9.67045 13.5569C9.89448 13.7949 10.1449 13.9711 10.4216 14.0856C10.6957 14.1973 10.9721 14.2329 11.2508 14.1923C11.5323 14.1492 11.7921 14.0156 12.0301 13.7915C12.2709 13.5649 12.4213 13.3151 12.4813 13.0421C12.5386 12.7664 12.5184 12.4896 12.4207 12.2119C12.3204 11.9314 12.1569 11.6707 11.9302 11.4299L9.29726 8.63248C8.96975 8.28451 8.98634 7.73693 9.3343 7.40942V7.40942C9.68227 7.08191 10.2299 7.09849 10.5574 7.44646L13.1903 10.2439C13.5251 10.5995 13.7813 10.9868 13.959 11.4057C14.1342 11.8218 14.226 12.2476 14.2346 12.6831C14.2431 13.1186 14.1638 13.5392 13.9964 13.9449C13.829 14.3507 13.569 14.7196 13.2161 15.0516Z" fill="white"/>
<circle cx="6.00531" cy="4.00538" r="1.53103" transform="rotate(-157.153 6.00531 4.00538)" fill="url(#paint0_linear_121_23)"/>
<path d="M7.61313 5.43875C8.08356 4.99597 8.60746 4.71939 9.18481 4.60901C9.75936 4.50128 10.3307 4.54442 10.8988 4.73845C11.4668 4.93792 11.9735 5.27428 12.4189 5.74752L14.1366 7.57245C14.4641 7.92042 14.4475 8.46801 14.0995 8.79552V8.79552C13.7516 9.12303 13.204 9.10645 12.8765 8.75848L11.1588 6.93354C10.9348 6.69552 10.6844 6.51927 10.4077 6.4048C10.1336 6.29312 9.85715 6.25754 9.57844 6.29807C9.29694 6.34123 9.03717 6.47483 8.79915 6.69886C8.55833 6.92552 8.40794 7.17532 8.34799 7.44827C8.29067 7.72401 8.31086 8.00075 8.40854 8.27847C8.50886 8.55899 8.67235 8.81966 8.89902 9.06048L11.532 11.8579C11.8595 12.2059 11.8429 12.7535 11.495 13.081V13.081C11.147 13.4085 10.5994 13.3919 10.2719 13.0439L7.63891 10.2465C7.30419 9.89087 7.04796 9.50362 6.87021 9.08473C6.6951 8.66865 6.60326 8.24284 6.59469 7.80731C6.58612 7.37179 6.66551 6.95117 6.83286 6.54545C7.00021 6.13974 7.2603 5.77084 7.61313 5.43875Z" fill="white"/>
</g>
<defs>
<linearGradient id="paint0_linear_121_23" x1="6.00531" y1="2.47435" x2="6.00531" y2="5.53641" gradientUnits="userSpaceOnUse">
<stop stop-color="#FF5562"/>
<stop offset="1" stop-color="#FF775A"/>
</linearGradient>
<clipPath id="clip0_121_23">
<rect width="20" height="20" fill="white"/>
</clipPath>
</defs>
</svg>
