<svg width="724" height="366" viewBox="0 0 724 366" fill="none" xmlns="http://www.w3.org/2000/svg">
<circle cx="551.001" cy="192.999" r="172.999" fill="#CE162D"/>
<path d="M63.523 265.742C53.2039 265.742 43.9569 264.067 35.782 260.716C27.6071 257.366 21.0403 252.408 16.0818 245.841C11.2572 239.274 8.71096 231.367 8.44293 222.12H45.029C45.565 227.347 47.3742 231.367 50.4566 234.182C53.5389 236.862 57.5594 238.202 62.5179 238.202C67.6105 238.202 71.6309 237.063 74.5792 234.785C77.5276 232.372 79.0017 229.089 79.0017 224.934C79.0017 221.45 77.7956 218.569 75.3833 216.291C73.1051 214.012 70.2238 212.136 66.7394 210.662C63.389 209.188 58.5645 207.513 52.2658 205.636C43.1528 202.822 35.7149 200.008 29.9523 197.193C24.1897 194.379 19.2311 190.225 15.0767 184.73C10.9222 179.235 8.84498 172.066 8.84498 163.221C8.84498 150.087 13.6025 139.835 23.1176 132.464C32.6326 124.959 45.029 121.207 60.3067 121.207C75.8524 121.207 88.3828 124.959 97.8978 132.464C107.413 139.835 112.505 150.154 113.176 163.422H75.9864C75.7184 158.865 74.0432 155.314 70.9608 152.768C67.8785 150.087 63.9251 148.747 59.1005 148.747C54.9461 148.747 51.5957 149.886 49.0494 152.164C46.5031 154.309 45.23 157.458 45.23 161.612C45.23 166.169 47.3742 169.72 51.6627 172.267C55.9512 174.813 62.6519 177.56 71.7649 180.509C80.8779 183.591 88.2487 186.539 93.8774 189.354C99.64 192.168 104.599 196.255 108.753 201.616C112.907 206.977 114.985 213.878 114.985 222.321C114.985 230.362 112.907 237.666 108.753 244.233C104.733 250.799 98.8359 256.026 91.0631 259.912C83.2902 263.799 74.1102 265.742 63.523 265.742ZM170.514 150.757V179.302H216.548V205.837H170.514V236.795H222.579V264.335H136.139V123.217H222.579V150.757H170.514ZM371.137 264.335H336.762L279.27 177.292V264.335H244.895V123.217H279.27L336.762 210.662V123.217H371.137V264.335Z" fill="black"/>
<path d="M503.601 168.648C503.601 176.823 501.725 184.328 497.973 191.163C494.22 197.863 488.458 203.291 480.685 207.446C472.912 211.6 463.263 213.677 451.738 213.677H430.429V264.335H396.055V123.217H451.738C462.995 123.217 472.51 125.16 480.283 129.047C488.056 132.933 493.885 138.294 497.772 145.129C501.658 151.963 503.601 159.803 503.601 168.648ZM449.124 186.338C455.691 186.338 460.583 184.797 463.799 181.715C467.015 178.632 468.624 174.277 468.624 168.648C468.624 163.02 467.015 158.664 463.799 155.582C460.583 152.499 455.691 150.958 449.124 150.958H430.429V186.338H449.124ZM609.344 239.408H556.676L548.233 264.335H512.25L563.31 123.217H603.112L654.172 264.335H617.787L609.344 239.408ZM600.499 212.873L583.01 161.21L565.722 212.873H600.499ZM704.087 123.217V264.335H669.712V123.217H704.087Z" fill="white"/>
<path d="M27.9992 56.031C34.1458 56.031 39.5172 57.2215 44.1134 59.6027C48.765 61.9284 52.3367 65.3064 54.8286 69.7364C57.3758 74.111 58.6495 79.2333 58.6495 85.1031C58.6495 90.9729 57.3758 96.0674 54.8286 100.387C52.3367 104.706 48.765 108.029 44.1134 110.354C39.5172 112.625 34.1458 113.76 27.9992 113.76H9.1438V56.031H27.9992ZM27.9992 106.035C34.755 106.035 39.9326 104.208 43.532 100.553C47.1314 96.8981 48.9311 91.7481 48.9311 85.1031C48.9311 78.4026 47.1314 73.1697 43.532 69.4041C39.9326 65.6386 34.755 63.7558 27.9992 63.7558H18.613V106.035H27.9992ZM82.4873 56.031V113.76H73.0181V56.031H82.4873ZM141.684 72.6436C140.189 69.7641 138.112 67.6044 135.454 66.1647C132.796 64.6695 129.723 63.922 126.234 63.922C122.413 63.922 119.008 64.7803 116.018 66.4969C113.027 68.2136 110.674 70.6501 108.957 73.8065C107.296 76.9629 106.465 80.6177 106.465 84.7708C106.465 88.924 107.296 92.6065 108.957 95.8182C110.674 98.9746 113.027 101.411 116.018 103.128C119.008 104.844 122.413 105.703 126.234 105.703C131.384 105.703 135.565 104.263 138.777 101.383C141.989 98.5039 143.955 94.6 144.674 89.6716H122.995V82.1128H154.808V89.5054C154.199 93.9908 152.593 98.1163 149.99 101.882C147.443 105.647 144.093 108.665 139.94 110.936C135.842 113.151 131.274 114.258 126.234 114.258C120.808 114.258 115.851 113.012 111.366 110.52C106.881 107.973 103.309 104.457 100.651 99.9714C98.0482 95.486 96.7469 90.4191 96.7469 84.7708C96.7469 79.1225 98.0482 74.0557 100.651 69.5703C103.309 65.0848 106.881 61.5962 111.366 59.1043C115.907 56.557 120.863 55.2834 126.234 55.2834C132.381 55.2834 137.836 56.8062 142.598 59.8519C147.415 62.8421 150.904 67.1061 153.064 72.6436H141.684ZM178.601 56.031V113.76H169.131V56.031H178.601ZM233.312 56.031V63.7558H217.945V113.76H208.476V63.7558H193.026V56.031H233.312ZM282.689 101.965H258.518L254.365 113.76H244.48L265.163 55.9479H276.127L296.81 113.76H286.842L282.689 101.965ZM280.031 94.24L270.645 67.4106L261.176 94.24H280.031ZM320.256 106.118H339.776V113.76H310.787V56.031H320.256V106.118Z" fill="black"/>
</svg>
