<svg width="1080" height="1080" viewBox="0 0 1080 1080" fill="none" xmlns="http://www.w3.org/2000/svg">
<circle cx="772.592" cy="479.592" r="215.592" fill="#CE162D"/>
<path d="M180.068 567.627C168.139 567.627 157.448 565.691 147.998 561.817C138.547 557.944 130.955 552.211 125.223 544.62C119.645 537.028 116.701 527.887 116.392 517.197H158.688C159.308 523.239 161.399 527.887 164.963 531.141C168.526 534.239 173.174 535.789 178.906 535.789C184.794 535.789 189.442 534.472 192.85 531.838C196.259 529.049 197.963 525.253 197.963 520.451C197.963 516.422 196.569 513.091 193.78 510.457C191.146 507.824 187.815 505.655 183.787 503.95C179.913 502.246 174.336 500.309 167.054 498.14C156.519 494.887 147.92 491.633 141.258 488.38C134.596 485.126 128.864 480.323 124.061 473.971C119.258 467.619 116.856 459.33 116.856 449.105C116.856 433.921 122.356 422.069 133.357 413.548C144.357 404.872 158.688 400.534 176.35 400.534C194.322 400.534 208.808 404.872 219.808 413.548C230.808 422.069 236.696 433.999 237.47 449.337H194.477C194.167 444.069 192.23 439.964 188.667 437.02C185.104 433.921 180.533 432.372 174.956 432.372C170.153 432.372 166.279 433.689 163.336 436.323C160.392 438.802 158.92 442.443 158.92 447.245C158.92 452.513 161.399 456.619 166.357 459.562C171.315 462.506 179.061 465.682 189.597 469.091C200.132 472.654 208.653 476.063 215.16 479.316C221.822 482.57 227.555 487.295 232.358 493.492C237.161 499.69 239.562 507.669 239.562 517.429C239.562 526.725 237.161 535.169 232.358 542.761C227.71 550.352 220.893 556.395 211.907 560.888C202.921 565.381 192.308 567.627 180.068 567.627ZM311.892 434.696V467.696H365.111V498.373H311.892V534.162H372.083V566H272.152V402.858H372.083V434.696H311.892ZM551.962 566H512.222L445.756 465.372V566H406.017V402.858H445.756L512.222 503.95V402.858H551.962V566Z" fill="white"/>
<path d="M713.235 455.379C713.235 464.83 711.066 473.506 706.728 481.408C702.39 489.154 695.727 495.429 686.741 500.232C677.755 505.035 666.6 507.436 653.276 507.436H628.642V566H588.902V402.858H653.276C666.291 402.858 677.291 405.104 686.277 409.597C695.263 414.09 702.002 420.287 706.495 428.189C710.988 436.09 713.235 445.154 713.235 455.379ZM650.255 475.83C657.847 475.83 663.502 474.049 667.22 470.485C670.938 466.922 672.798 461.886 672.798 455.379C672.798 448.872 670.938 443.837 667.22 440.273C663.502 436.71 657.847 434.928 650.255 434.928H628.642V475.83H650.255ZM843.615 537.183H782.727L772.966 566H731.367L790.396 402.858H836.411L895.44 566H853.376L843.615 537.183ZM833.39 506.507L813.171 446.781L793.185 506.507H833.39ZM961.279 402.858V566H921.539V402.858H961.279Z" fill="black"/>
<path d="M139 325.261C146.106 325.261 152.316 326.637 157.63 329.39C163.007 332.079 167.136 335.984 170.017 341.105C172.962 346.163 174.434 352.085 174.434 358.871C174.434 365.656 172.962 371.546 170.017 376.54C167.136 381.533 163.007 385.374 157.63 388.063C152.316 390.688 146.106 392 139 392H117.202V325.261H139ZM139 383.069C146.811 383.069 152.796 380.957 156.957 376.732C161.119 372.506 163.199 366.553 163.199 358.871C163.199 351.124 161.119 345.075 156.957 340.721C152.796 336.368 146.811 334.191 139 334.191H128.149V383.069H139ZM201.993 325.261V392H191.046V325.261H201.993ZM270.429 344.466C268.7 341.137 266.3 338.641 263.227 336.976C260.154 335.248 256.601 334.384 252.568 334.384C248.151 334.384 244.213 335.376 240.756 337.36C237.299 339.345 234.579 342.162 232.594 345.811C230.674 349.46 229.713 353.685 229.713 358.486C229.713 363.288 230.674 367.545 232.594 371.258C234.579 374.907 237.299 377.724 240.756 379.708C244.213 381.693 248.151 382.685 252.568 382.685C258.522 382.685 263.355 381.021 267.068 377.692C270.781 374.363 273.054 369.85 273.886 364.152H248.823V355.414H285.601V363.96C284.897 369.145 283.041 373.915 280.032 378.268C277.087 382.621 273.214 386.11 268.412 388.735C263.675 391.296 258.393 392.576 252.568 392.576C246.294 392.576 240.564 391.136 235.379 388.255C230.193 385.31 226.064 381.245 222.991 376.059C219.982 370.874 218.478 365.016 218.478 358.486C218.478 351.957 219.982 346.099 222.991 340.913C226.064 335.728 230.193 331.695 235.379 328.814C240.628 325.869 246.358 324.397 252.568 324.397C259.674 324.397 265.98 326.157 271.485 329.678C277.055 333.135 281.088 338.065 283.585 344.466H270.429ZM313.107 325.261V392H302.16V325.261H313.107ZM376.358 325.261V334.191H358.593V392H347.646V334.191H329.784V325.261H376.358ZM433.442 378.364H405.498L400.696 392H389.269L413.18 325.165H425.855L449.766 392H438.243L433.442 378.364ZM430.369 369.434L419.518 338.417L408.57 369.434H430.369ZM476.871 383.165H499.438V392H465.924V325.261H476.871V383.165Z" fill="white"/>
</svg>
