<svg width="536" height="262" viewBox="0 0 536 262" fill="none" xmlns="http://www.w3.org/2000/svg">
<g clip-path="url(#clip0_309_2)">
<circle cx="406" cy="132" r="130" fill="#CE162D"/>
<path d="M41.4 182.05C33.7 182.05 26.8 180.8 20.7 178.3C14.6 175.8 9.7 172.1 6 167.2C2.4 162.3 0.500001 156.4 0.3 149.5H27.6C28 153.4 29.35 156.4 31.65 158.5C33.95 160.5 36.95 161.5 40.65 161.5C44.45 161.5 47.45 160.65 49.65 158.95C51.85 157.15 52.95 154.7 52.95 151.6C52.95 149 52.05 146.85 50.25 145.15C48.55 143.45 46.4 142.05 43.8 140.95C41.3 139.85 37.7 138.6 33 137.2C26.2 135.1 20.65 133 16.35 130.9C12.05 128.8 8.35 125.7 5.25 121.6C2.15 117.5 0.600001 112.15 0.600001 105.55C0.600001 95.75 4.15 88.1 11.25 82.6C18.35 77 27.6 74.2 39 74.2C50.6 74.2 59.95 77 67.05 82.6C74.15 88.1 77.95 95.8 78.45 105.7H50.7C50.5 102.3 49.25 99.65 46.95 97.75C44.65 95.75 41.7 94.75 38.1 94.75C35 94.75 32.5 95.6 30.6 97.3C28.7 98.9 27.75 101.25 27.75 104.35C27.75 107.75 29.35 110.4 32.55 112.3C35.75 114.2 40.75 116.25 47.55 118.45C54.35 120.75 59.85 122.95 64.05 125.05C68.35 127.15 72.05 130.2 75.15 134.2C78.25 138.2 79.8 143.35 79.8 149.65C79.8 155.65 78.25 161.1 75.15 166C72.15 170.9 67.75 174.8 61.95 177.7C56.15 180.6 49.3 182.05 41.4 182.05ZM121.235 96.25V117.55H155.585V137.35H121.235V160.45H160.085V181H95.5852V75.7H160.085V96.25H121.235ZM270.938 181H245.288L202.388 116.05V181H176.738V75.7H202.388L245.288 140.95V75.7H270.938V181Z" fill="black"/>
<path d="M369.78 109.6C369.78 115.7 368.38 121.3 365.58 126.4C362.78 131.4 358.48 135.45 352.68 138.55C346.88 141.65 339.68 143.2 331.08 143.2H315.18V181H289.53V75.7H331.08C339.48 75.7 346.58 77.15 352.38 80.05C358.18 82.95 362.53 86.95 365.43 92.05C368.33 97.15 369.78 103 369.78 109.6ZM329.13 122.8C334.03 122.8 337.68 121.65 340.08 119.35C342.48 117.05 343.68 113.8 343.68 109.6C343.68 105.4 342.48 102.15 340.08 99.85C337.68 97.55 334.03 96.4 329.13 96.4H315.18V122.8H329.13ZM448.684 162.4H409.384L403.084 181H376.234L414.334 75.7H444.034L482.134 181H454.984L448.684 162.4ZM442.084 142.6L429.034 104.05L416.134 142.6H442.084ZM519.38 75.7V181H493.73V75.7H519.38Z" fill="white"/>
<path d="M19.0851 6.27107C25.2318 6.27107 30.6032 7.46164 35.1993 9.84279C39.8509 12.1686 43.4226 15.5465 45.9145 19.9765C48.4618 24.3512 49.7354 29.4734 49.7354 35.3432C49.7354 41.213 48.4618 46.3075 45.9145 50.6268C43.4226 54.9461 39.8509 58.2686 35.1993 60.5944C30.6032 62.8648 25.2318 64 19.0851 64H0.22974V6.27107H19.0851ZM19.0851 56.2751C25.8409 56.2751 31.0185 54.4477 34.6179 50.793C38.2173 47.1382 40.017 41.9883 40.017 35.3432C40.017 28.6428 38.2173 23.4098 34.6179 19.6442C31.0185 15.8787 25.8409 13.9959 19.0851 13.9959H9.69895V56.2751H19.0851ZM66.0976 6.27107V64H56.6284V6.27107H66.0976ZM117.819 22.8837C116.324 20.0042 114.247 17.8445 111.589 16.4048C108.931 14.9096 105.858 14.1621 102.369 14.1621C98.548 14.1621 95.1424 15.0204 92.1522 16.737C89.1619 18.4537 86.8084 20.8902 85.0918 24.0466C83.4305 27.203 82.5999 30.8578 82.5999 35.0109C82.5999 39.1641 83.4305 42.8466 85.0918 46.0583C86.8084 49.2147 89.1619 51.6513 92.1522 53.3679C95.1424 55.0845 98.548 55.9429 102.369 55.9429C107.519 55.9429 111.7 54.5031 114.911 51.6236C118.123 48.7441 120.089 44.8401 120.809 39.9117H99.1295V32.3529H130.943V39.7455C130.334 44.231 128.728 48.3564 126.125 52.122C123.578 55.8875 120.228 58.9055 116.074 61.1759C111.977 63.3909 107.408 64.4984 102.369 64.4984C96.9421 64.4984 91.986 63.2524 87.5006 60.7605C83.0152 58.2133 79.4435 54.6969 76.7855 50.2115C74.1828 45.7261 72.8815 40.6592 72.8815 35.0109C72.8815 29.3626 74.1828 24.2958 76.7855 19.8104C79.4435 15.325 83.0152 11.8363 87.5006 9.34441C92.0414 6.79714 96.9975 5.5235 102.369 5.5235C108.516 5.5235 113.97 7.04633 118.732 10.092C123.55 13.0823 127.039 17.3462 129.198 22.8837H117.819ZM147.259 6.27107V64H137.79V6.27107H147.259ZM194.495 6.27107V13.9959H179.128V64H169.659V13.9959H154.209V6.27107H194.495ZM236.397 52.205H212.225L208.072 64H198.188L218.87 6.18801H229.835L250.517 64H240.55L236.397 52.205ZM233.739 44.4801L224.352 17.6507L214.883 44.4801H233.739ZM266.488 56.3582H286.007V64H257.018V6.27107H266.488V56.3582Z" fill="black"/>
</g>
<defs>
<clipPath id="clip0_309_2">
<rect width="536" height="262" fill="white"/>
</clipPath>
</defs>
</svg>
