<svg width="1080" height="563" viewBox="0 0 1080 563" fill="none" xmlns="http://www.w3.org/2000/svg">
<g clip-path="url(#clip0_121_9)">
<path d="M668.082 505.689C649.855 522.844 629.556 533.561 607.186 537.837C584.925 542.012 562.788 540.34 540.776 532.822C518.77 525.093 499.138 512.061 481.88 493.725L415.329 423.017C402.639 409.535 403.281 388.319 416.764 375.629V375.629C430.246 362.94 451.462 363.582 464.152 377.064L530.703 447.772C539.383 456.995 549.084 463.823 559.807 468.259C570.427 472.586 581.136 473.964 591.935 472.394C602.842 470.722 612.907 465.545 622.129 456.865C631.46 448.083 637.286 438.404 639.609 427.829C641.83 417.145 641.048 406.423 637.263 395.663C633.376 384.794 627.042 374.694 618.26 365.363L516.244 256.975C503.554 243.493 504.197 222.277 517.679 209.587V209.587C531.161 196.898 552.378 197.54 565.067 211.022L667.083 319.41C680.052 333.189 689.98 348.194 696.867 364.424C703.651 380.545 707.21 397.043 707.542 413.918C707.874 430.792 704.798 447.089 698.314 462.809C691.83 478.529 681.753 492.822 668.082 505.689Z" fill="white"/>
<circle cx="388.699" cy="77.6989" r="59.3205" transform="rotate(-157.153 388.699 77.6989)" fill="url(#paint0_linear_121_9)"/>
<path d="M450.989 133.233C469.216 116.078 489.515 105.361 511.884 101.085C534.146 96.9106 556.283 98.5823 578.295 106.1C600.301 113.829 619.933 126.861 637.191 145.197L703.742 215.905C716.432 229.387 715.789 250.603 702.307 263.293V263.293C688.825 275.983 667.609 275.34 654.919 261.858L588.368 191.15C579.688 181.928 569.987 175.099 559.264 170.663C548.644 166.336 537.935 164.958 527.136 166.528C516.229 168.201 506.164 173.377 496.942 182.057C487.611 190.839 481.784 200.518 479.461 211.093C477.241 221.777 478.023 232.499 481.808 243.26C485.695 254.129 492.029 264.228 500.811 273.559L602.827 381.947C615.517 395.429 614.874 416.645 601.392 429.335V429.335C587.91 442.025 566.693 441.382 554.004 427.9L451.988 319.512C439.019 305.733 429.091 290.729 422.204 274.499C415.42 258.377 411.861 241.879 411.529 225.005C411.197 208.13 414.273 191.833 420.757 176.113C427.241 160.394 437.318 146.1 450.989 133.233Z" fill="white"/>
</g>
<defs>
<linearGradient id="paint0_linear_121_9" x1="388.699" y1="18.3784" x2="388.699" y2="137.019" gradientUnits="userSpaceOnUse">
<stop stop-color="#FF5562"/>
<stop offset="1" stop-color="#FF775A"/>
</linearGradient>
<clipPath id="clip0_121_9">
<rect width="1080" height="563" fill="white"/>
</clipPath>
</defs>
</svg>
