<svg width="1205" height="563" viewBox="0 0 1205 563" fill="none" xmlns="http://www.w3.org/2000/svg">
<g clip-path="url(#clip0_121_13)">
<path d="M357.082 505.689C338.855 522.844 318.556 533.561 296.187 537.837C273.926 542.012 251.789 540.34 229.776 532.822C207.77 525.093 188.138 512.061 170.88 493.725L104.329 423.017C91.6392 409.535 92.2817 388.319 105.764 375.629V375.629C119.246 362.94 140.463 363.582 153.152 377.064L219.703 447.772C228.383 456.995 238.085 463.823 248.807 468.259C259.427 472.586 270.136 473.964 280.935 472.394C291.842 470.722 301.907 465.545 311.129 456.865C320.46 448.083 326.287 438.404 328.61 427.829C330.83 417.145 330.048 406.423 326.264 395.663C322.377 384.794 316.042 374.694 307.26 365.363L205.244 256.975C192.554 243.493 193.197 222.277 206.679 209.587V209.587C220.161 196.898 241.378 197.54 254.067 211.022L356.083 319.41C369.052 333.189 378.98 348.194 385.867 364.424C392.651 380.545 396.21 397.043 396.542 413.918C396.874 430.792 393.798 447.089 387.314 462.809C380.83 478.529 370.753 492.822 357.082 505.689Z" fill="black"/>
<circle cx="77.6986" cy="77.6989" r="59.3205" transform="rotate(-157.153 77.6986 77.6989)" fill="url(#paint0_linear_121_13)"/>
<path d="M139.989 133.233C158.216 116.078 178.515 105.361 200.884 101.085C223.145 96.9106 245.282 98.5823 267.295 106.1C289.301 113.829 308.933 126.861 326.191 145.197L392.742 215.905C405.432 229.387 404.789 250.603 391.307 263.293V263.293C377.825 275.983 356.608 275.34 343.919 261.858L277.368 191.15C268.688 181.928 258.986 175.099 248.264 170.663C237.644 166.336 226.935 164.958 216.136 166.528C205.229 168.201 195.164 173.377 185.942 182.057C176.611 190.839 170.784 200.518 168.461 211.093C166.24 221.777 167.022 232.499 170.807 243.26C174.694 254.129 181.029 264.228 189.811 273.559L291.827 381.947C304.516 395.429 303.874 416.645 290.392 429.335V429.335C276.91 442.025 255.693 441.382 243.004 427.9L140.988 319.512C128.019 305.733 118.091 290.729 111.204 274.499C104.419 258.377 100.861 241.879 100.529 225.005C100.197 208.13 103.273 191.833 109.757 176.113C116.241 160.394 126.318 146.1 139.989 133.233Z" fill="black"/>
<path d="M512.635 260H463.136V120.366H513.044C527.09 120.366 539.18 123.161 549.317 128.752C559.453 134.297 567.248 142.275 572.703 152.684C578.202 163.092 580.952 175.547 580.952 190.047C580.952 204.592 578.202 217.092 572.703 227.546C567.248 238 559.407 246.023 549.18 251.614C538.999 257.205 526.817 260 512.635 260ZM492.658 234.705H511.408C520.135 234.705 527.476 233.16 533.43 230.069C539.43 226.932 543.93 222.092 546.93 215.546C549.976 208.955 551.498 200.456 551.498 190.047C551.498 179.729 549.976 171.297 546.93 164.752C543.93 158.206 539.453 153.388 533.499 150.297C527.544 147.206 520.203 145.661 511.476 145.661H492.658V234.705ZM602.276 260V155.274H631.321V260H602.276ZM616.867 141.775C612.549 141.775 608.844 140.343 605.753 137.479C602.708 134.57 601.185 131.093 601.185 127.048C601.185 123.048 602.708 119.616 605.753 116.752C608.844 113.843 612.549 112.389 616.867 112.389C621.185 112.389 624.866 113.843 627.912 116.752C631.003 119.616 632.548 123.048 632.548 127.048C632.548 131.093 631.003 134.57 627.912 137.479C624.866 140.343 621.185 141.775 616.867 141.775ZM701.769 301.454C692.36 301.454 684.292 300.158 677.564 297.568C670.883 295.022 665.565 291.545 661.61 287.136C657.656 282.727 655.088 277.772 653.906 272.273L680.769 268.659C681.587 270.75 682.883 272.704 684.655 274.522C686.428 276.341 688.769 277.795 691.678 278.886C694.632 280.022 698.223 280.591 702.45 280.591C708.769 280.591 713.973 279.045 718.064 275.954C722.2 272.909 724.268 267.795 724.268 260.614V241.455H723.041C721.768 244.364 719.859 247.114 717.314 249.705C714.768 252.296 711.496 254.409 707.496 256.046C703.496 257.682 698.723 258.5 693.178 258.5C685.314 258.5 678.155 256.682 671.701 253.046C665.292 249.364 660.178 243.75 656.36 236.205C652.588 228.614 650.701 219.023 650.701 207.433C650.701 195.569 652.633 185.66 656.497 177.706C660.36 169.751 665.497 163.797 671.905 159.843C678.36 155.888 685.428 153.911 693.11 153.911C698.973 153.911 703.882 154.911 707.837 156.911C711.791 158.865 714.973 161.32 717.382 164.274C719.837 167.183 721.723 170.047 723.041 172.865H724.132V155.274H752.972V261.023C752.972 269.932 750.791 277.386 746.427 283.386C742.063 289.386 736.018 293.886 728.291 296.886C720.609 299.931 711.768 301.454 701.769 301.454ZM702.382 236.682C707.064 236.682 711.018 235.523 714.246 233.205C717.518 230.841 720.018 227.478 721.746 223.114C723.518 218.705 724.405 213.433 724.405 207.296C724.405 201.16 723.541 195.842 721.814 191.342C720.087 186.797 717.587 183.274 714.314 180.774C711.041 178.274 707.064 177.024 702.382 177.024C697.61 177.024 693.587 178.32 690.314 180.91C687.042 183.456 684.564 187.001 682.883 191.547C681.201 196.092 680.36 201.342 680.36 207.296C680.36 213.342 681.201 218.569 682.883 222.978C684.61 227.341 687.087 230.728 690.314 233.137C693.587 235.5 697.61 236.682 702.382 236.682ZM776.086 260V155.274H805.131V260H776.086ZM790.676 141.775C786.358 141.775 782.654 140.343 779.563 137.479C776.517 134.57 774.995 131.093 774.995 127.048C774.995 123.048 776.517 119.616 779.563 116.752C782.654 113.843 786.358 112.389 790.676 112.389C794.994 112.389 798.676 113.843 801.722 116.752C804.812 119.616 806.358 123.048 806.358 127.048C806.358 131.093 804.812 134.57 801.722 137.479C798.676 140.343 794.994 141.775 790.676 141.775ZM884.101 155.274V177.092H821.034V155.274H884.101ZM835.352 130.184H864.397V227.819C864.397 230.5 864.806 232.591 865.624 234.091C866.442 235.546 867.578 236.569 869.033 237.159C870.533 237.75 872.26 238.046 874.215 238.046C875.578 238.046 876.942 237.932 878.306 237.705C879.669 237.432 880.715 237.228 881.442 237.091L886.01 258.705C884.555 259.159 882.51 259.682 879.874 260.273C877.237 260.909 874.033 261.295 870.26 261.432C863.26 261.705 857.124 260.773 851.851 258.636C846.624 256.5 842.556 253.182 839.647 248.682C836.738 244.182 835.306 238.5 835.352 231.637V130.184ZM932.884 261.977C926.202 261.977 920.248 260.818 915.021 258.5C909.794 256.136 905.657 252.659 902.612 248.068C899.612 243.432 898.112 237.659 898.112 230.75C898.112 224.932 899.18 220.046 901.317 216.092C903.453 212.137 906.362 208.955 910.044 206.546C913.725 204.137 917.907 202.319 922.589 201.092C927.316 199.865 932.271 199.001 937.452 198.501C943.543 197.865 948.452 197.274 952.179 196.728C955.907 196.137 958.611 195.274 960.293 194.137C961.975 193.001 962.816 191.319 962.816 189.092V188.683C962.816 184.365 961.452 181.024 958.725 178.66C956.043 176.297 952.225 175.115 947.27 175.115C942.043 175.115 937.884 176.274 934.793 178.592C931.702 180.865 929.657 183.729 928.657 187.183L901.794 185.001C903.157 178.638 905.839 173.138 909.839 168.501C913.839 163.82 918.998 160.229 925.316 157.729C931.68 155.184 939.043 153.911 947.407 153.911C953.225 153.911 958.793 154.593 964.111 155.956C969.475 157.32 974.224 159.433 978.361 162.297C982.542 165.161 985.838 168.842 988.247 173.342C990.656 177.797 991.861 183.138 991.861 189.365V260H964.316V245.478H963.497C961.816 248.75 959.566 251.636 956.747 254.136C953.929 256.591 950.543 258.523 946.589 259.932C942.634 261.295 938.066 261.977 932.884 261.977ZM941.202 241.932C945.475 241.932 949.248 241.091 952.52 239.409C955.793 237.682 958.361 235.364 960.225 232.455C962.088 229.546 963.02 226.251 963.02 222.569V211.455C962.111 212.046 960.861 212.592 959.27 213.092C957.725 213.546 955.975 213.978 954.02 214.387C952.066 214.751 950.111 215.092 948.157 215.41C946.202 215.683 944.429 215.933 942.839 216.16C939.43 216.66 936.452 217.455 933.907 218.546C931.361 219.637 929.384 221.114 927.975 222.978C926.566 224.796 925.862 227.069 925.862 229.796C925.862 233.75 927.293 236.773 930.157 238.864C933.066 240.909 936.748 241.932 941.202 241.932ZM1043.44 120.366V260H1014.39V120.366H1043.44ZM538.885 342.524C538.339 337.024 535.999 332.752 531.862 329.706C527.726 326.661 522.112 325.138 515.022 325.138C510.204 325.138 506.135 325.82 502.817 327.184C499.499 328.502 496.954 330.343 495.181 332.706C493.454 335.07 492.59 337.752 492.59 340.752C492.499 343.252 493.022 345.433 494.158 347.297C495.34 349.161 496.954 350.774 498.999 352.138C501.045 353.456 503.408 354.615 506.09 355.615C508.772 356.57 511.635 357.388 514.681 358.07L527.226 361.069C533.317 362.433 538.908 364.251 543.998 366.524C549.089 368.797 553.498 371.592 557.226 374.91C560.953 378.228 563.839 382.137 565.884 386.637C567.975 391.137 569.044 396.296 569.089 402.114C569.044 410.66 566.862 418.069 562.544 424.341C558.271 430.568 552.089 435.409 543.998 438.864C535.953 442.273 526.249 443.977 514.885 443.977C503.613 443.977 493.795 442.25 485.431 438.796C477.113 435.341 470.613 430.227 465.932 423.455C461.295 416.637 458.864 408.205 458.636 398.16H487.204C487.522 402.842 488.863 406.751 491.227 409.887C493.636 412.978 496.84 415.319 500.84 416.909C504.885 418.455 509.454 419.228 514.544 419.228C519.544 419.228 523.885 418.5 527.567 417.046C531.294 415.591 534.18 413.569 536.226 410.978C538.271 408.387 539.294 405.41 539.294 402.046C539.294 398.91 538.362 396.273 536.499 394.137C534.68 392.001 531.999 390.183 528.453 388.683C524.953 387.183 520.658 385.819 515.567 384.592L500.363 380.774C488.59 377.91 479.295 373.433 472.477 367.342C465.659 361.251 462.273 353.047 462.318 342.729C462.273 334.274 464.523 326.888 469.068 320.57C473.659 314.252 479.954 309.32 487.954 305.775C495.954 302.23 505.045 300.457 515.226 300.457C525.59 300.457 534.635 302.23 542.362 305.775C550.135 309.32 556.18 314.252 560.498 320.57C564.816 326.888 567.044 334.206 567.18 342.524H538.885ZM636.128 444.045C625.355 444.045 616.083 441.864 608.31 437.5C600.583 433.091 594.628 426.864 590.447 418.819C586.265 410.728 584.174 401.16 584.174 390.114C584.174 379.342 586.265 369.888 590.447 361.751C594.628 353.615 600.515 347.274 608.105 342.729C615.742 338.184 624.696 335.911 634.969 335.911C641.878 335.911 648.309 337.024 654.264 339.252C660.264 341.433 665.491 344.729 669.945 349.138C674.445 353.547 677.945 359.092 680.445 365.774C682.945 372.41 684.195 380.183 684.195 389.092V397.069H595.765V379.069H656.855C656.855 374.887 655.946 371.183 654.127 367.956C652.309 364.729 649.787 362.206 646.559 360.388C643.378 358.524 639.673 357.592 635.446 357.592C631.037 357.592 627.128 358.615 623.719 360.66C620.355 362.66 617.719 365.365 615.81 368.774C613.901 372.137 612.923 375.887 612.878 380.024V397.137C612.878 402.319 613.833 406.796 615.742 410.569C617.696 414.341 620.446 417.25 623.991 419.296C627.537 421.341 631.741 422.364 636.605 422.364C639.832 422.364 642.787 421.909 645.468 421C648.15 420.091 650.446 418.728 652.355 416.909C654.264 415.091 655.718 412.864 656.718 410.228L683.581 412C682.218 418.455 679.422 424.091 675.195 428.909C671.013 433.682 665.604 437.409 658.968 440.091C652.377 442.727 644.764 444.045 636.128 444.045ZM732.194 381.456V442H703.149V337.274H730.831V355.751H732.058C734.376 349.661 738.262 344.842 743.717 341.297C749.171 337.706 755.785 335.911 763.557 335.911C770.83 335.911 777.171 337.502 782.58 340.683C787.989 343.865 792.193 348.411 795.193 354.32C798.193 360.183 799.693 367.183 799.693 375.319V442H770.648V380.501C770.694 374.092 769.057 369.092 765.739 365.501C762.421 361.865 757.853 360.047 752.035 360.047C748.126 360.047 744.671 360.888 741.671 362.569C738.717 364.251 736.399 366.706 734.717 369.933C733.081 373.115 732.24 376.956 732.194 381.456ZM822.585 481.272V337.274H851.221V354.865H852.516C853.789 352.047 855.63 349.183 858.039 346.274C860.493 343.32 863.675 340.865 867.584 338.911C871.539 336.911 876.448 335.911 882.311 335.911C889.947 335.911 896.993 337.911 903.447 341.911C909.902 345.865 915.061 351.842 918.924 359.842C922.788 367.797 924.72 377.774 924.72 389.774C924.72 401.455 922.833 411.319 919.061 419.364C915.333 427.364 910.243 433.432 903.788 437.568C897.379 441.659 890.197 443.705 882.243 443.705C876.607 443.705 871.811 442.773 867.857 440.909C863.948 439.046 860.743 436.705 858.243 433.886C855.743 431.023 853.834 428.137 852.516 425.228H851.63V481.272H822.585ZM851.016 389.637C851.016 395.864 851.88 401.296 853.607 405.932C855.334 410.569 857.834 414.182 861.107 416.773C864.38 419.319 868.357 420.591 873.039 420.591C877.766 420.591 881.766 419.296 885.038 416.705C888.311 414.069 890.788 410.432 892.47 405.796C894.197 401.114 895.061 395.728 895.061 389.637C895.061 383.592 894.22 378.274 892.538 373.683C890.856 369.092 888.379 365.501 885.107 362.91C881.834 360.32 877.811 359.024 873.039 359.024C868.311 359.024 864.311 360.274 861.039 362.774C857.812 365.274 855.334 368.819 853.607 373.41C851.88 378.001 851.016 383.41 851.016 389.637ZM973.946 443.977C967.264 443.977 961.31 442.818 956.083 440.5C950.855 438.136 946.719 434.659 943.674 430.068C940.674 425.432 939.174 419.659 939.174 412.75C939.174 406.932 940.242 402.046 942.378 398.092C944.515 394.137 947.424 390.955 951.105 388.546C954.787 386.137 958.969 384.319 963.651 383.092C968.378 381.865 973.332 381.001 978.514 380.501C984.605 379.865 989.514 379.274 993.241 378.728C996.968 378.137 999.673 377.274 1001.35 376.137C1003.04 375.001 1003.88 373.319 1003.88 371.092V370.683C1003.88 366.365 1002.51 363.024 999.787 360.66C997.105 358.297 993.287 357.115 988.332 357.115C983.105 357.115 978.946 358.274 975.855 360.592C972.764 362.865 970.719 365.729 969.719 369.183L942.856 367.001C944.219 360.638 946.901 355.138 950.901 350.501C954.901 345.82 960.06 342.229 966.378 339.729C972.742 337.184 980.105 335.911 988.469 335.911C994.287 335.911 999.855 336.593 1005.17 337.956C1010.54 339.32 1015.29 341.433 1019.42 344.297C1023.6 347.161 1026.9 350.842 1029.31 355.342C1031.72 359.797 1032.92 365.138 1032.92 371.365V442H1005.38V427.478H1004.56C1002.88 430.75 1000.63 433.636 997.809 436.136C994.991 438.591 991.605 440.523 987.65 441.932C983.696 443.295 979.128 443.977 973.946 443.977ZM982.264 423.932C986.537 423.932 990.309 423.091 993.582 421.409C996.855 419.682 999.423 417.364 1001.29 414.455C1003.15 411.546 1004.08 408.251 1004.08 404.569V393.455C1003.17 394.046 1001.92 394.592 1000.33 395.092C998.787 395.546 997.037 395.978 995.082 396.387C993.128 396.751 991.173 397.092 989.219 397.41C987.264 397.683 985.491 397.933 983.9 398.16C980.491 398.66 977.514 399.455 974.969 400.546C972.423 401.637 970.446 403.114 969.037 404.978C967.628 406.796 966.923 409.069 966.923 411.796C966.923 415.75 968.355 418.773 971.219 420.864C974.128 422.909 977.81 423.932 982.264 423.932ZM1055.46 442V337.274H1084.5V442H1055.46ZM1070.05 323.775C1065.73 323.775 1062.02 322.343 1058.93 319.479C1055.89 316.57 1054.37 313.093 1054.37 309.048C1054.37 305.048 1055.89 301.616 1058.93 298.752C1062.02 295.843 1065.73 294.389 1070.05 294.389C1074.36 294.389 1078.05 295.843 1081.09 298.752C1084.18 301.616 1085.73 305.048 1085.73 309.048C1085.73 313.093 1084.18 316.57 1081.09 319.479C1078.05 322.343 1074.36 323.775 1070.05 323.775Z" fill="black"/>
</g>
<defs>
<linearGradient id="paint0_linear_121_13" x1="77.6986" y1="18.3784" x2="77.6986" y2="137.019" gradientUnits="userSpaceOnUse">
<stop stop-color="#FF5562"/>
<stop offset="1" stop-color="#FF775A"/>
</linearGradient>
<clipPath id="clip0_121_13">
<rect width="1205" height="563" fill="white"/>
</clipPath>
</defs>
</svg>
