<svg width="882" height="431" viewBox="0 0 882 431" fill="none" xmlns="http://www.w3.org/2000/svg">
<g clip-path="url(#clip0_309_8)">
<circle cx="665.961" cy="215.592" r="215.592" fill="#CE162D"/>
<path d="M73.4375 303.627C61.5078 303.627 50.8175 301.691 41.3667 297.817C31.9159 293.944 24.3242 288.211 18.5918 280.62C13.0142 273.028 10.0705 263.887 9.76068 253.197H52.057C52.6767 259.239 54.7683 263.887 58.3317 267.141C61.8951 270.239 66.5431 271.789 72.2755 271.789C78.1629 271.789 82.8109 270.472 86.2194 267.838C89.6279 265.049 91.3321 261.253 91.3321 256.451C91.3321 252.422 89.9377 249.091 87.149 246.457C84.5151 243.824 81.1841 241.655 77.1559 239.95C73.2826 238.246 67.7051 236.309 60.4233 234.14C49.8879 230.887 41.2892 227.633 34.6272 224.38C27.9651 221.126 22.2327 216.323 17.4298 209.971C12.6269 203.619 10.2255 195.33 10.2255 185.105C10.2255 169.921 15.7255 158.069 26.7257 149.548C37.7258 140.872 52.057 136.534 69.7192 136.534C87.6912 136.534 102.177 140.872 113.177 149.548C124.178 158.069 130.065 169.999 130.84 185.337H87.8461C87.5363 180.069 85.5996 175.964 82.0362 173.02C78.4728 169.921 73.9023 168.372 68.3248 168.372C63.5219 168.372 59.6486 169.689 56.7049 172.323C53.7612 174.802 52.2894 178.443 52.2894 183.245C52.2894 188.513 54.7683 192.619 59.7261 195.562C64.6839 198.506 72.4305 201.682 82.9658 205.091C93.5011 208.654 102.022 212.063 108.529 215.316C115.192 218.57 120.924 223.295 125.727 229.492C130.53 235.69 132.931 243.669 132.931 253.429C132.931 262.725 130.53 271.169 125.727 278.761C121.079 286.352 114.262 292.395 105.276 296.888C96.2899 301.381 85.6771 303.627 73.4375 303.627ZM205.261 170.696V203.696H258.48V234.373H205.261V270.162H265.452V302H165.521V138.858H265.452V170.696H205.261ZM445.331 302H405.591L339.126 201.372V302H299.386V138.858H339.126L405.591 239.95V138.858H445.331V302Z" fill="white"/>
<path d="M606.604 191.379C606.604 200.83 604.435 209.506 600.097 217.408C595.759 225.154 589.097 231.429 580.111 236.232C571.125 241.035 559.97 243.436 546.645 243.436H522.011V302H482.271V138.858H546.645C559.66 138.858 570.66 141.104 579.646 145.597C588.632 150.09 595.371 156.287 599.864 164.189C604.357 172.09 606.604 181.154 606.604 191.379ZM543.624 211.83C551.216 211.83 556.871 210.049 560.589 206.485C564.308 202.922 566.167 197.886 566.167 191.379C566.167 184.872 564.308 179.837 560.589 176.273C556.871 172.71 551.216 170.928 543.624 170.928H522.011V211.83H543.624ZM736.984 273.183H676.096L666.335 302H624.736L683.765 138.858H729.78L788.809 302H746.745L736.984 273.183ZM726.759 242.507L706.54 182.781L686.554 242.507H726.759ZM854.648 138.858V302H814.908V138.858H854.648Z" fill="black"/>
<path d="M32.3694 61.2609C39.4755 61.2609 45.6853 62.6373 50.9988 65.3901C56.3763 68.0789 60.5055 71.984 63.3863 77.1054C66.3312 82.1629 67.8036 88.0846 67.8036 94.8705C67.8036 101.656 66.3312 107.546 63.3863 112.54C60.5055 117.533 56.3763 121.374 50.9988 124.063C45.6853 126.688 39.4755 128 32.3694 128H10.5712V61.2609H32.3694ZM32.3694 119.069C40.1797 119.069 46.1654 116.957 50.3266 112.732C54.4878 108.506 56.5684 102.553 56.5684 94.8705C56.5684 87.1243 54.4878 81.0746 50.3266 76.7213C46.1654 72.3681 40.1797 70.1915 32.3694 70.1915H21.5183V119.069H32.3694ZM95.362 61.2609V128H84.4148V61.2609H95.362ZM163.798 80.4664C162.07 77.1374 159.669 74.6407 156.596 72.9763C153.523 71.2478 149.97 70.3835 145.937 70.3835C141.52 70.3835 137.583 71.3758 134.126 73.3604C130.669 75.3449 127.948 78.1617 125.963 81.8108C124.043 85.4598 123.082 89.685 123.082 94.4864C123.082 99.2878 124.043 103.545 125.963 107.258C127.948 110.907 130.669 113.724 134.126 115.708C137.583 117.693 141.52 118.685 145.937 118.685C151.891 118.685 156.724 117.021 160.437 113.692C164.15 110.363 166.423 105.85 167.255 100.152H142.192V91.4135H178.97V99.96C178.266 105.145 176.41 109.915 173.401 114.268C170.456 118.621 166.583 122.11 161.781 124.735C157.044 127.296 151.763 128.576 145.937 128.576C139.663 128.576 133.934 127.136 128.748 124.255C123.563 121.31 119.433 117.245 116.36 112.059C113.352 106.874 111.847 101.016 111.847 94.4864C111.847 87.9565 113.352 82.0989 116.36 76.9134C119.433 71.7279 123.563 67.6947 128.748 64.8139C133.998 61.8691 139.727 60.3966 145.937 60.3966C153.043 60.3966 159.349 62.1572 164.854 65.6782C170.424 69.1352 174.457 74.0646 176.954 80.4664H163.798ZM206.476 61.2609V128H195.529V61.2609H206.476ZM269.727 61.2609V70.1915H251.962V128H241.015V70.1915H223.154V61.2609H269.727ZM326.811 114.364H298.867L294.065 128H282.638L306.549 61.1649H319.225L343.135 128H331.612L326.811 114.364ZM323.738 105.434L312.887 74.4167L301.94 105.434H323.738ZM370.241 119.165H392.807V128H359.293V61.2609H370.241V119.165Z" fill="white"/>
</g>
<defs>
<clipPath id="clip0_309_8">
<rect width="882" height="431" fill="white"/>
</clipPath>
</defs>
</svg>
